<?xml version="1.0" standalone="no"?>
<!DOCTYPE svg PUBLIC "-//W3C//DTD SVG 20010904//EN"
 "http://www.w3.org/TR/2001/REC-SVG-20010904/DTD/svg10.dtd">
<svg version="1.0" xmlns="http://www.w3.org/2000/svg"
 width="32.000000pt" height="32.000000pt" viewBox="0 0 32.000000 32.000000"
 preserveAspectRatio="xMidYMid meet">

<g transform="translate(0.000000,32.000000) scale(0.100000,-0.100000)"
fill="#000000" stroke="none">
<path d="M120 285 c-7 -8 -10 -28 -8 -44 4 -29 3 -30 -41 -33 -44 -3 -46 -4
-46 -33 0 -25 5 -31 30 -35 41 -7 46 -46 10 -80 -35 -33 -32 -50 8 -50 21 0
41 8 52 20 10 11 26 20 35 20 9 0 25 -9 35 -20 11 -12 31 -20 52 -20 40 0 43
17 8 50 -36 34 -31 73 10 80 25 4 30 10 30 35 0 29 -2 30 -46 33 -44 3 -45 4
-41 33 5 37 -12 59 -48 59 -15 0 -33 -7 -40 -15z m74 -42 l-1 -43 49 0 c45 0
48 -2 48 -25 0 -21 -5 -25 -29 -25 -47 0 -56 -52 -16 -90 14 -13 25 -27 25
-32 0 -16 -57 -7 -75 12 -10 11 -26 20 -35 20 -9 0 -25 -9 -35 -20 -18 -19
-75 -28 -75 -12 0 5 11 19 25 32 40 38 31 90 -16 90 -24 0 -29 4 -29 25 0 23
3 25 50 25 l50 0 -6 30 c-10 46 1 62 38 58 32 -3 33 -5 32 -45z"/>
</g>
</svg>
